<?xml version="1.0" standalone="no"?>
<!DOCTYPE svg PUBLIC "-//W3C//DTD SVG 20010904//EN"
 "http://www.w3.org/TR/2001/REC-SVG-20010904/DTD/svg10.dtd">
<svg version="1.0" xmlns="http://www.w3.org/2000/svg"
 width="206.000000pt" height="206.000000pt" viewBox="0 0 206.000000 206.000000"
 preserveAspectRatio="xMidYMid meet">
<metadata>
Created by potrace 1.14, written by Peter Selinger 2001-2017
</metadata>
<g transform="translate(0.000000,206.000000) scale(0.100000,-0.100000)"
fill="#000000" stroke="none">
<path d="M1000 1960 c-24 -24 -25 -48 -4 -78 15 -22 13 -32 -43 -193 -32 -93
-63 -169 -69 -169 -10 0 -131 91 -249 187 -46 38 -59 54 -57 72 5 35 -24 72
-53 67 -34 -6 -45 -14 -54 -40 -11 -29 7 -65 36 -72 13 -4 23 -8 23 -9 0 -2
20 -79 45 -171 24 -93 43 -170 41 -171 -2 -2 -39 -6 -82 -8 -44 -2 -124 -7
-178 -10 -84 -4 -102 -2 -118 12 -17 15 -18 14 -18 -22 0 -30 3 -36 16 -31 9
3 75 -17 147 -46 73 -29 137 -53 142 -54 19 -5 126 -51 132 -58 4 -4 2 -10 -4
-14 -26 -17 -95 -142 -119 -216 -52 -158 -29 -356 57 -491 17 -27 34 -52 38
-55 3 -3 26 -31 49 -63 145 -195 295 -279 502 -281 121 -1 167 7 265 49 157
68 288 231 331 416 3 13 7 62 9 109 6 146 -42 284 -148 425 -93 124 -200 217
-294 254 -18 8 -33 19 -33 26 0 11 176 445 182 450 2 1 13 8 26 14 39 20 22
71 -24 71 -23 0 -34 -17 -34 -54 0 -17 -37 -58 -127 -144 -70 -67 -130 -118
-134 -114 -3 4 -34 76 -69 161 -60 150 -62 156 -46 182 9 15 16 32 16 38 0 18
-39 51 -60 51 -11 0 -29 -9 -40 -20z m171 -447 c6 -18 14 -33 18 -33 4 0 49
42 102 93 131 128 133 129 113 81 -9 -22 -20 -48 -25 -59 -4 -11 -30 -74 -57
-140 -40 -97 -53 -120 -68 -118 -11 2 -46 7 -79 13 -149 25 -325 -26 -447
-128 l-31 -26 -71 26 c-198 74 -266 101 -263 104 4 5 155 15 228 16 26 0 52 4
58 8 9 5 1 51 -33 180 -25 96 -44 175 -42 177 1 2 72 -52 157 -118 85 -67 159
-126 166 -131 8 -7 16 4 27 39 12 39 89 263 112 323 5 13 103 -211 135 -307z
m5 -204 c3 -5 10 -7 15 -3 5 3 40 -4 77 -16 166 -54 293 -177 359 -349 33 -84
40 -226 17 -316 -44 -170 -180 -325 -341 -388 -61 -24 -190 -47 -230 -41 -10
2 -36 6 -59 9 -122 16 -265 96 -344 192 -169 204 -176 478 -17 700 17 24 40
45 51 49 12 3 30 16 41 28 85 92 212 143 358 144 37 0 70 -4 73 -9z"/>
<path d="M1001 1018 c-215 -81 -238 -396 -37 -500 51 -27 59 -29 125 -33 251
-12 384 291 205 469 -77 77 -191 102 -293 64z m249 -150 c0 -5 4 -6 10 -3 5 3
23 -1 39 -10 35 -18 47 -61 37 -132 -21 -152 -195 -249 -330 -183 -53 25 -61
45 -53 127 10 94 66 167 153 198 42 16 144 17 144 3z"/>
<path d="M1839 1003 c0 -16 -2 -35 -3 -43 -2 -8 1 -26 5 -40 5 -17 7 -4 8 43
1 37 -1 67 -4 67 -3 0 -5 -12 -6 -27z"/>
</g>
</svg>
